# xmcd
#
# Track frame offsets:
#	150
#	39615
#	95097
#	140471
#	200139
#
# Disc length: 3472 seconds
#
# Revision: 1
# Processed by: cddbd v1.5.2PL0 Copyright (c) Steve Scherf et al.
# Submitted via: audiograbber 1.83.01
#
DISCID=490d8e05
DTITLE=Grateful Dead - 76-09-23 Cameron Indoor Stadium, Duke University, Durham
DTITLE=NC
DYEAR=1900
DGENRE=
TTITLE0=High Time
TTITLE1=Dancing In The Streets
TTITLE2=Wharf Rat > Drums
TTITLE3=The Other One
TTITLE4=Morning Dew
EXTD=
EXTT0=
EXTT1=
EXTT2=
EXTT3=
EXTT4=
PLAYORDER=
